<svg height="1em" viewBox="0 0 3074 801" fill="none" xmlns="http://www.w3.org/2000/svg">
<path d="M229.262 301.112L125.717 584.337H338.897L229.262 301.112ZM256.671 234.112L472.896 791.426H418.079L351.079 623.928H110.49L49.5814 791.426H0.854492L201.853 234.112H256.671Z" fill="#0A083B"/>
<path d="M722.628 791.426V234.112H1024.13V270.657H774.4V486.883H941.899V523.428H774.4V751.836H1042.4V791.426H722.628Z" fill="#0A083B"/>
<path d="M1295.16 727.466C1313.44 736.603 1334.75 742.694 1353.03 748.785C1377.39 754.875 1404.8 760.966 1432.21 760.966C1471.8 760.966 1508.34 754.875 1538.8 733.557C1563.16 715.285 1575.34 687.876 1575.34 660.467C1575.34 596.513 1523.57 550.831 1423.07 523.423C1322.57 496.014 1270.8 441.196 1273.85 355.924C1273.85 316.333 1292.12 282.833 1322.57 258.47C1359.12 231.061 1401.75 215.834 1447.44 218.879C1474.84 218.879 1499.21 221.925 1523.57 228.016C1544.89 234.107 1566.21 240.197 1584.48 249.334L1566.21 288.924C1550.98 282.833 1535.75 276.743 1517.48 270.652C1496.16 264.561 1471.8 261.515 1447.44 261.515C1413.94 261.515 1383.48 267.606 1356.07 285.879C1337.8 298.061 1325.62 328.515 1325.62 355.924C1325.62 419.878 1377.39 468.605 1477.89 496.014C1578.39 523.423 1630.16 578.24 1627.12 660.467C1627.12 700.058 1611.89 736.603 1575.34 760.966C1532.71 791.421 1490.07 800.557 1441.34 800.557C1413.94 800.557 1377.39 797.511 1349.98 791.421C1328.66 785.33 1304.3 776.193 1286.03 764.012L1295.16 727.466Z" fill="#0A083B"/>
<path d="M1968.22 234.112H1916.44V791.426H1968.22V234.112Z" fill="#0A083B"/>
<path d="M2635.16 788.381L2504.21 550.837C2504.21 550.837 2476.8 553.883 2440.25 553.883H2358.03V785.335H2306.25V234.112H2449.39C2498.12 234.112 2549.89 243.249 2592.52 270.657C2632.12 298.066 2653.43 343.748 2650.39 392.475C2650.39 425.975 2641.25 456.429 2622.98 483.838C2604.71 508.201 2580.34 529.519 2549.89 538.656L2693.02 788.381H2635.16ZM2449.39 276.748H2354.98V511.247H2440.25C2488.98 511.247 2522.48 502.11 2549.89 486.883C2583.39 468.611 2598.62 438.156 2598.62 392.475C2598.62 346.793 2589.48 313.294 2559.02 298.066C2522.48 282.839 2495.07 276.748 2449.39 276.748Z" fill="#0A083B"/>
<path fill-rule="evenodd" clip-rule="evenodd" d="M2873.59 564.215V0.251465H2918.61V564.215H2873.59Z" fill="#0A083B"/>
<path fill-rule="evenodd" clip-rule="evenodd" d="M3041.57 453.621L2733.96 134.172L2766.39 102.947L3074 422.396L3041.57 453.621Z" fill="#0A083B"/>
</svg>
